<svg xmlns="http://www.w3.org/2000/svg" xmlns:xlink="http://www.w3.org/1999/xlink" width="468px" height="312px" viewBox="0 0 468 312"><title>E8524B25-B958-45C4-A64A-C0E0C4221BE9</title><defs><path d="M0,0 L203,0 C258.228475,4.06554845e-15 303,44.771525 303,100 L303,160.5 C303,244.17114 235.17114,312 151.5,312 C67.8288604,312 1.02467593e-14,244.17114 0,160.5 L0,0 L0,0 Z" id="path-1"></path><circle id="path-3" cx="82" cy="82" r="82"></circle></defs><g id="Design-System" stroke="none" stroke-width="1" fill="none" fill-rule="evenodd"><g id="Components" transform="translate(-972.000000, -10081.000000)"><g id="Group-7" transform="translate(0.000000, 9948.000000)"><g id="Group-Copy" transform="translate(972.000000, 133.000000)"><path d="M321,18 C402.185858,18 468,83.8141418 468,165 C468,246.185858 402.185858,312 321,312 L288.5,312 C220.292833,312 165,256.707167 165,188.5 L165,18 L321,18 Z" id="Combined-Shape" fill="#FFD450" transform="translate(316.500000, 165.000000) scale(-1, -1) translate(-316.500000, -165.000000) "></path><g id="Rectangle" transform="translate(165.000000, 0.000000)"><mask id="mask-2" fill="white"><use xlink:href="#path-1"></use></mask><use id="Mask" fill="#FFBF3F" xlink:href="#path-1"></use></g><g id="Rectangle" transform="translate(0.000000, 148.000000)"><mask id="mask-4" fill="white"><use xlink:href="#path-3"></use></mask><use id="Mask" fill="#FFFFFF" xlink:href="#path-3"></use></g></g></g></g></g></svg>