<svg xmlns="http://www.w3.org/2000/svg" xmlns:xlink="http://www.w3.org/1999/xlink" width="126px" height="116px" viewBox="0 0 126 116"><title>Group 23 Copy 2</title><g id="Design-System" stroke="none" stroke-width="1" fill="none" fill-rule="evenodd"><g id="icons" transform="translate(-129.000000, -403.000000)"><g id="Group-23-Copy-2" transform="translate(130.000000, 404.000000)"><path d="M9,0 L89.7296132,0 C94.700176,6.14005873e-15 98.7296132,4.02943725 98.7296132,9 L98.7296132,24 L98.7296132,24 L0,24 L0,9 C-2.38507522e-15,4.02943725 4.02943725,-8.63279275e-16 9,0 Z" id="Rectangle" fill="#FFD450"></path><path d="M99.2976777,68.1327443 L99.2976777,105.971831 C99.2976777,110.405666 95.79712,114 91.4789628,114 L7.81871476,114 C3.50055784,114 0,110.405666 0,105.971831 L0,8.02816903 C0,3.5943337 3.50055784,0 7.81871476,0 L91.4789628,0 C95.79712,0 99.2976777,3.5943337 99.2976777,8.02816903 L99.2976777,37.748041 L99.2976777,37.748041" id="Path" stroke="#0D121D" stroke-width="1.5" stroke-linecap="round"></path><g id="Group-3" stroke-linecap="round" transform="translate(94.987192, 60.958667) rotate(25.000000) translate(-94.987192, -60.958667) translate(88.673684, 10.442312)"><polygon id="Rectangle" fill="#FFD450" fill-rule="nonzero" points="0 2.4084507 12.6270167 2.4084507 12.6270167 86.7042255 6.31350831 101.032712 0 86.7042255"></polygon><line x1="4.4883478" y1="0" x2="4.73513125" y2="32.915493" id="Path-18" stroke="#0D121D" stroke-width="1.5"></line></g><line x1="0" y1="24.5344937" x2="99.2976777" y2="24.5344937" id="Path-16" stroke="#0D121D" stroke-width="1.5"></line><line x1="18.7082581" y1="12.9901899" x2="33.0992259" y2="12.9901899" id="Path-17" stroke="#0D121D" stroke-width="1.5" stroke-linecap="round"></line><line x1="40.2947098" y1="12.9609382" x2="84.9067099" y2="13.0194415" id="Path-17-Copy" stroke="#0D121D" stroke-width="1.5" stroke-linecap="round"></line><rect id="Rectangle" fill="#FFD450" x="14.3909678" y="36.0759494" width="21.5864517" height="21.6455696" rx="6"></rect><line x1="14.3909678" y1="70.7383981" x2="74.8330325" y2="70.6850196" id="Path-17-Copy-3" stroke="#0D121D" stroke-width="1.5" stroke-linecap="round"></line><line x1="44.6120001" y1="38.9835204" x2="73.3939357" y2="38.9462264" id="Path-17-Copy-7" stroke="#0D121D" stroke-width="1.5" stroke-linecap="round"></line><line x1="44.6120001" y1="46.1987103" x2="73.3939357" y2="46.1614163" id="Path-17-Copy-8" stroke="#0D121D" stroke-width="1.5" stroke-linecap="round"></line><line x1="14.3909678" y1="82.2827019" x2="60.4420647" y2="82.2293234" id="Path-17-Copy-4" stroke="#0D121D" stroke-width="1.5" stroke-linecap="round"></line><line x1="14.3909678" y1="92.3839678" x2="47.4901937" y2="92.3305892" id="Path-17-Copy-5" stroke="#0D121D" stroke-width="1.5" stroke-linecap="round"></line><line x1="14.3909678" y1="102.429293" x2="67.6375486" y2="102.487796" id="Path-17-Copy-6" stroke="#0D121D" stroke-width="1.5" stroke-linecap="round"></line></g></g></g></svg>