<svg width="94px" height="85px" viewBox="0 0 94 85" version="1.1" xmlns="http://www.w3.org/2000/svg" xmlns:xlink="http://www.w3.org/1999/xlink">
    <title>985328E8-9E27-45A1-BC6B-77E0B4FA46C1</title>
    <g id="Homepage" stroke="none" stroke-width="1" fill="none" fill-rule="evenodd" stroke-linecap="round">
        <g id="Homepage-Yellow" transform="translate(-1258.000000, -2663.000000)" stroke="#0D121D" stroke-width="1.4">
            <g id="Group-3" transform="translate(60.000000, 1880.000000)">
                <g id="Group-18" transform="translate(690.000000, 480.000000)">
                    <g id="Group-4-Copy" transform="translate(509.000000, 304.000000)">
                        <path d="M54.2977903,52.8444444 L3.6999436,52.8444444 C1.65652117,52.8444444 0,51.2127711 0,49.2 L0,3.64444444 C0,1.63167336 1.65652117,0 3.6999436,0 L76.7738297,0 C78.8172521,0 80.4737733,1.63167336 80.4737733,3.64444444 L80.4737733,33.5699073 L80.4737733,32.340976" id="Path"></path>
                        <polyline id="Path-24" fill="#FFD450" points="58.218148 57.8997498 46.6977224 76.2747932 54.4773514 74.3520909 55.7750072 82.0030932 68.9069772 61.5"></polyline>
                        <polyline id="Path-24" fill="#FFD450" transform="translate(80.002011, 69.497329) scale(-1, 1) translate(-80.002011, -69.497329) " points="81.5517107 56.9915641 68.8973839 76.2747932 76.677013 74.3520909 77.9746688 82.0030932 91.1066388 61.5"></polyline>
                        <ellipse id="Oval" fill="#FFD450" cx="68.2177101" cy="46.2388889" rx="15.4935138" ry="15.2611111"></ellipse>
                        <path d="M76.3113367,46.2388889 C76.3113367,41.8359521 72.6876966,38.2666667 68.2177101,38.2666667 C65.2771334,38.2666667 62.7028262,39.8113302 61.2854684,42.1218375 M62.4562026,51.8379742 C63.9237958,53.303052 65.9630938,54.2111111 68.2177101,54.2111111 C70.7640221,54.2111111 73.0356971,53.0528884 74.5193563,51.2421211" id="Shape"></path>
                        <line x1="30.9870276" y1="14.1222222" x2="68.4396876" y2="13.9971644" id="Path-25"></line>
                        <rect id="Rectangle" fill="#FFD450" x="9.71235195" y="7.28888889" width="13.4122955" height="12.7555556" rx="6.37777778"></rect>
                        <line x1="9.896873" y1="26.2971644" x2="52.7241963" y2="26.4222222" id="Path-25-Copy"></line>
                        <line x1="9.896873" y1="32.6749422" x2="44.1680767" y2="33.0277778" id="Path-25-Copy-2"></line>
                        <line x1="9.896873" y1="39.0527199" x2="44.1680767" y2="39.4055556" id="Path-25-Copy-3"></line>
                        <line x1="64.6177477" y1="63.104694" x2="57.8023498" y2="73.8764315" id="Path-26"></line>
                        <polyline id="Path-5" stroke-linejoin="round" points="13.2620137 14.1222222 15.9560068 16.4742401 20.0339023 10.9914729"></polyline>
                    </g>
                </g>
            </g>
        </g>
    </g>
</svg>