<svg width="92px" height="82px" viewBox="0 0 92 82" version="1.1" xmlns="http://www.w3.org/2000/svg" xmlns:xlink="http://www.w3.org/1999/xlink">
    <title>5B1D1B32-1AFC-43A6-86C0-77EDF8B1E7B5</title>
    <g id="Homepage" stroke="none" stroke-width="1" fill="none" fill-rule="evenodd" stroke-linecap="round">
        <g id="Homepage-Yellow" transform="translate(-1258.000000, -2185.000000)" stroke="#0D121D" stroke-width="1.4">
            <g id="Group-3" transform="translate(60.000000, 1880.000000)">
                <g id="Group-19" transform="translate(690.000000, 0.000000)">
                    <g id="Group-8" transform="translate(509.000000, 306.000000)">
                        <rect id="Rectangle" x="0" y="0" width="90" height="80" rx="4"></rect>
                        <rect id="Rectangle" fill="#FFD450" x="7" y="7" width="75" height="21" rx="1"></rect>
                        <rect id="Rectangle" x="7" y="33" width="20" height="11.1818182" rx="1"></rect>
                        <rect id="Rectangle-Copy-5" x="7" y="47.9090909" width="20" height="11.1818182" rx="1"></rect>
                        <rect id="Rectangle-Copy-8" x="7" y="62.8181818" width="20" height="11.1818182" rx="1"></rect>
                        <rect id="Rectangle-Copy" x="35" y="33" width="20" height="11.1818182" rx="1"></rect>
                        <rect id="Rectangle-Copy-6" x="35" y="47.9090909" width="20" height="11.1818182" rx="1"></rect>
                        <rect id="Rectangle-Copy-9" x="35" y="62.8181818" width="20" height="11.1818182" rx="1"></rect>
                        <rect id="Rectangle-Copy-4" x="62" y="33" width="20" height="11.1818182" rx="1"></rect>
                        <rect id="Rectangle-Copy-7" fill="#FFD450" x="62" y="47.9090909" width="20" height="26.0909091" rx="1"></rect>
                    </g>
                </g>
            </g>
        </g>
    </g>
</svg>