<svg width="92px" height="84px" viewBox="0 0 92 84" version="1.1" xmlns="http://www.w3.org/2000/svg" xmlns:xlink="http://www.w3.org/1999/xlink">
    <title>762315C3-5A62-423D-A608-1B14263076F9</title>
    <g id="Homepage" stroke="none" stroke-width="1" fill="none" fill-rule="evenodd" stroke-linecap="round">
        <g id="Homepage-Yellow" transform="translate(-569.000000, -2663.000000)" stroke="#0D121D" stroke-width="1.4">
            <g id="Group-3" transform="translate(60.000000, 1880.000000)">
                <g id="Group-16" transform="translate(0.000000, 480.000000)">
                    <g id="Group-20" transform="translate(27.000000, 304.000000)">
                        <g id="Group-4-Copy-3" transform="translate(483.000000, 0.000000)">
                            <path d="M56.1920694,73.03125 L3.82902299,73.03125 C1.71431199,73.03125 0,70.7762704 0,67.9946121 L0,5.03663793 C0,2.25497961 1.71431199,0 3.82902299,0 L79.452227,0 C81.566938,0 83.28125,2.25497961 83.28125,5.03663793 L83.28125,46.3937566 L83.28125,44.6953682 L83.28125,56.5992187" id="Path"></path>
                            <ellipse id="Oval" fill="#FFD450" cx="74.1986834" cy="66.6570312" rx="15.2514277" ry="15.0226562"></ellipse>
                            <polyline id="Path-4" points="74.3125 56.375 74.3125 67.3310766 83.28125 73.03125"></polyline>
                            <line x1="30.5028553" y1="13.9015625" x2="67.3703175" y2="13.7784587" id="Path-25"></line>
                            <line x1="30.5028553" y1="17.7453125" x2="67.3703175" y2="17.6222087" id="Path-25-Copy-4"></line>
                            <rect id="Rectangle" fill="#FFD450" x="9.56059645" y="7.175" width="13.2027284" height="12.55625" rx="6.278125"></rect>
                            <line x1="9.74223436" y1="30.3706462" x2="51.9003807" y2="30.49375" id="Path-25-Copy"></line>
                            <line x1="9.74223436" y1="36.6487712" x2="43.4779505" y2="36.9960938" id="Path-25-Copy-2"></line>
                            <line x1="9.74223436" y1="42.9268962" x2="43.4779505" y2="43.2742188" id="Path-25-Copy-3"></line>
                            <line x1="9.74223436" y1="49.3331462" x2="43.4779505" y2="49.6804688" id="Path-25-Copy-7"></line>
                            <line x1="9.74223436" y1="55.7393962" x2="43.4779505" y2="56.0867188" id="Path-25-Copy-8"></line>
                            <polyline id="Path-5" stroke-linejoin="round" points="13.0547947 13.9015625 15.7066942 16.2168301 19.7208726 10.8197312"></polyline>
                        </g>
                    </g>
                </g>
            </g>
        </g>
    </g>
</svg>