<?xml version="1.0" ?><svg id="Capa_1" style="enable-background:new 0 0 100 100;" version="1.1" viewBox="0 0 100 100" xml:space="preserve" xmlns="http://www.w3.org/2000/svg" xmlns:xlink="http://www.w3.org/1999/xlink"><path d="M35.27,39.42c-0.26,0-0.51-0.1-0.71-0.29c-0.39-0.39-0.39-1.02,0-1.41l14.73-14.73c0.19-0.19,0.44-0.29,0.71-0.29l0,0  c0.27,0,0.52,0.11,0.71,0.29l14.73,14.73c0.39,0.39,0.39,1.02,0,1.41s-1.02,0.39-1.41,0L50,25.11L35.98,39.13  C35.78,39.33,35.53,39.42,35.27,39.42z"/><path d="M50,64.69c-0.55,0-1-0.45-1-1v-40c0-0.55,0.45-1,1-1s1,0.45,1,1v40C51,64.24,50.55,64.69,50,64.69z"/><path d="M72.5,77.31h-45c-0.55,0-1-0.45-1-1s0.45-1,1-1h45c0.55,0,1,0.45,1,1S73.05,77.31,72.5,77.31z"/></svg>