<svg xmlns="http://www.w3.org/2000/svg" xmlns:xlink="http://www.w3.org/1999/xlink" id="Layer_1" x="0px" y="0px" viewBox="0 0 304 305" style="enable-background:new 0 0 304 305;" xml:space="preserve">
<style type="text/css">
	.st0{fill:#FFD450;}
	.st1{fill:#0D121D;}
</style>
<g>
	<path class="st1" d="M304,152.5c0,84-68.1,152.1-152.1,152.1c-84,0-152.1-68.1-152.1-152.1c0-84,68.1-152.1,152.1-152.1   C235.9,0.5,304,68.5,304,152.5"></path>
	<g>
		<path class="st0" d="M42,188.3c1.7,0,3.5-0.4,5.5-1.2c2-0.8,3.2-1.2,3.8-1.2c1.7,0,2.6,0.9,2.6,2.6c0,1.2-0.6,2.1-1.9,2.8    c-3,1.7-6.2,2.6-9.6,2.6h-1.6h-1.6c-3.1,5.4-5.9,9.1-8.5,11c-4.5,3.1-8.9,4.7-13.3,4.7c-3.6,0-5.4-1.5-5.4-4.6    c0-2.5,1.3-6.5,3.9-11.9c1-2,2.7-5.4,5.3-10.4c-4.8-6.7-7.1-14.9-6.9-24.5c0.2-9.3,3-18.7,8.5-27.9c4.3-7.2,9.4-13.2,15.2-18.1    c0.9-0.7,2-1.5,3.2-2.3c5.5-3.4,10.8-5.1,16-5.1c8.5,0,12.8,4.5,12.8,13.4c0,3.1-0.8,7.6-2.3,13.5c-0.5,2.1-3.3,8.7-8.4,19.8    c13.4-16.8,24.7-26.8,33.8-29.9c3.1-1.1,5.7-1.6,7.8-1.6c5,0,7.6,2.7,7.6,8c0,3.1-0.9,6.8-2.6,11.1c-2.1,5.2-5.1,11.7-9,19.6    c15.3-17.9,28-26.8,38.2-26.8c6,0,9,2.6,9,7.8c0,2.7-0.9,6.1-2.6,10.1c-5.4,10.2-11.6,22.2-18.6,36.3c-1,2.3-1.5,4.2-1.5,5.5    c0,3,2.2,2.7,6.6-0.8c2.5-2.1,5.8-4.9,9.8-8.4c1.2-1.2,2.5-1.8,4-1.8c1,0,1.5,0.4,1.5,1.1c0,0.9-0.9,2.3-2.6,4.3    c-4.4,5.1-9.2,9.8-14.4,13.9c-7.1,5.6-13.1,8.4-17.9,8.4c-6.6,0-9.8-3.4-9.8-10.1c0-2.8,0.6-5.5,1.8-8.1    c5.1-11.3,9.3-21,12.4-29.1c1.1-2.8,1.6-4.9,1.6-6.5c0-1.3-0.5-1.9-1.3-1.9c-1.3,0-3.1,1.1-5.7,3.2c-6.4,5.5-13.3,13.3-20.6,23.6    l-4.6,9.2c-2.8,5.6-4.5,8.9-5.3,10.1c-1.4,2.2-3.3,4.2-5.7,5.9c-4.6,3.4-8.9,5.1-13.1,5.1c-4.3,0-6.5-1.2-6.5-3.6    c0-1.3,0.5-3,1.5-5.1c3.9-8.5,11.6-23.7,23.2-45.4c2.7-5,4-8.9,4-11.5c0-1.6-0.5-2.4-1.6-2.4c-2.9,0-8,4.6-15.5,13.9    c-5.3,6.6-10.9,14.3-16.9,23.3C45.5,181,44,184.2,42,188.3 M20.6,159.1c-0.3,6.5,0.9,12.1,3.6,17c13-25.7,20.7-41.3,22.9-46.8    c1.1-2.6,1.6-4.8,1.6-6.6c0-3.2-1.4-4.9-4.3-4.9c-0.6,0-1.3,0.1-2.2,0.3l-0.8,0.4c-4.6,2.2-9,7.3-13.4,15.2    C23.4,142.3,20.9,150.8,20.6,159.1"></path>
		<path class="st0" d="M158.2,196.8c1.9,1.7,4.4,2.6,7.7,2.6c4.2,0,8-1.4,11.2-4c3.8-3.1,8.8-9,15.1-17.7    c-11.8-5.6-17.7-12.5-17.7-20.9c0-12,5.5-19.6,16.5-22.9c1.7-0.5,3.6-0.8,5.8-0.8c7.7,0,14.7,2.4,21,7.3    c10.2-12.9,22.2-22.6,35.7-29c8.5-4,16.6-5.9,24.3-5.9c5.8,0,9.8,1,11.7,3c1.5,1.5,2.3,2.9,2.3,4.2c0,0.4-0.1,1-0.3,1.5    c-0.2,0.6-0.3,1-0.3,1.1c0,0.5-1.1,2.4-3.2,5.5c-2.8,4-10.2,17.4-22.1,40c-2.9,5.4-7.2,14.1-12.9,26c-4,8.1-6.5,12.7-7.5,13.9    c-2.3,2.7-6.1,5.1-11.2,7.3c-1.4,0.6-3.6,0.9-6.5,0.9c-3-0.1-4.8-0.6-5.5-1.6c-1-1.5-1.5-2.6-1.5-3.1c0-1.6,0.8-4.3,2.4-8    c0-0.9,0.1-2.7,0.4-5.5c0.3-2.8,0.4-5.1,0.4-7c0-12-1-20.9-3.1-26.7c-1.4,2.1-4.4,7.9-9.3,17.4c1.4,0.1,2.9,0.2,4.4,0.4    c2,0.4,3,1.1,3,2.3c0,1-1,2-3.1,3c-2.4,1.1-5.2,1.6-8.4,1.6l-0.3,0.5c-5,10.1-12.1,17.6-21.3,22.5c-6.7,3.5-13.2,5.3-19.6,5.3    c-1,0-1.9,0-2.7-0.1c-5.5-0.8-10.4-2.7-14.8-5.7c-6.2-4.2-9.3-9.8-9.3-16.6c0-7.1,2-12.5,5.9-16.2c3.2-2.9,7.1-4.4,11.6-4.4    c3-0.1,5.5,0.9,7.6,2.9c2.1,2,3.2,4.5,3.2,7.5c0,3.1-1.1,5.7-3.2,8c-2.1,2.2-4.7,3.4-7.6,3.4c-0.5,1.1-0.8,2.4-0.7,3.9    C156.6,194.4,157.1,195.8,158.2,196.8 M197.1,171.4c3.3-5,8.9-13.3,16.6-24.9c-5.8-4.7-11.8-7-17.8-7c-4.1,0-7.3,1.4-9.6,4.2    c-2.9,3.6-4.3,7.4-4.3,11.5c0,5.5,1.8,9.3,5.4,11.5c1.4,0.9,2.8,1.8,4.2,2.7C193.5,170.3,195.4,171,197.1,171.4 M232.3,179    c7.1-12.8,14.9-25.6,23.5-38.6c4.9-7.5,9.4-14,13.8-19.7c1.7-2.2,2.6-4,2.6-5.3c0-1.3-1-2-3-2c-1.1,0-2.5,0.2-4.3,0.7    c-7.7,2-15.2,7.1-22.5,15.4c-6.6,7.4-12.2,14.3-16.9,20.9C229.2,158.9,231.4,168.4,232.3,179"></path>
	</g>
</g>
</svg>