<svg xmlns="http://www.w3.org/2000/svg" xmlns:xlink="http://www.w3.org/1999/xlink" width="812px" height="570px" viewBox="0 0 812 570"><title>“</title><g id="Homepage" stroke="none" stroke-width="1" fill="none" fill-rule="evenodd"><path d="M185.606667,569.24 C238.62,569.24 282.673333,552.066667 317.766667,517.72 C352.86,483.373333 370.406667,436.706667 370.406667,377.72 C370.406667,318.733333 345.766667,272.813333 296.486667,239.96 L296.486667,239.96 L397.286667,0.28 L213.606667,0.28 L50.0866666,237.72 C17.2333332,288.493333 0.806666555,340.013333 0.806666555,392.28 C0.806666555,444.546667 18.3533332,487.106667 53.4466666,519.96 C88.5399999,552.813333 132.593333,569.24 185.606667,569.24 Z M600.006667,569.24 C653.02,569.24 697.073333,552.066667 732.166667,517.72 C767.26,483.373333 784.806667,436.706667 784.806667,377.72 C784.806667,318.733333 760.166667,272.813333 710.886667,239.96 L710.886667,239.96 L811.686667,0.28 L628.006667,0.28 L464.486667,237.72 C431.633333,288.493333 415.206667,340.013333 415.206667,392.28 C415.206667,444.546667 432.753333,487.106667 467.846667,519.96 C502.94,552.813333 546.993333,569.24 600.006667,569.24 Z" id="&#x201C;" fill="#D7E2F2" fill-rule="nonzero"></path></g></svg>